# xmcd
#
# Track frame offsets: 
#        150
#        11359
#        22284
#        35318
#        47864
#        61355
#        73954
#        93854
#        114106
#        135965
#        146915
#        193895
#        207622
#        219910
#        233497
#        244063
#        272023
#        283982
#        305759
#        325557
#
# Disc length: 4599 seconds
#
# Revision: 0
# Processed by: cddbd v1.5.2PL0 Copyright (c) Steve Scherf et al.
# Submitted via: ExactAudioCopy v0.99pb4
#
DISCID=2b11f514
DTITLE=Various Artist - Jazz Soul Blues [CD6-Electric Blues)
DYEAR=2009
DGENRE=Blues
TTITLE0=John Lee Hooker - Boom Boom
TTITLE1=Bb King - Catfish Blues
TTITLE2=Elmore James - Dust My Broom
TTITLE3=Jimmy Reed - Shame Shame Shame
TTITLE4=Frank Edwards - My Babys Gone
TTITLE5=T-Bone Walker - Blues Is A Woman
TTITLE6=John Mayall - Road Show
TTITLE7=Magic Slim and James Cotton - When The Levee Breaks
TTITLE8=R.L. Burnside - Everything Is Broken
TTITLE9=Jimmy Rodgers - That's All Right
TTITLE10=Bo Diddley - I'm A Man
TTITLE11=Pee Wee Crayton - Blues After Hours
TTITLE12=Memphis Slim - Blues For My Baby
TTITLE13=Jelly Roll Morton - Jelly Roll Blues
TTITLE14=Clarence Frogman Henry - Aint Got No Home
TTITLE15=Magic Slim - Woman Blues
TTITLE16=Charles Brown - Trouble Blues
TTITLE17=Lucky Peterson - Is It Because Im Black
TTITLE18=JJ. Milteau - Down In Mississippi
TTITLE19=Popa Chubby - Angel On My Shoulder
EXTD=
EXTT0=
EXTT1=
EXTT2=
EXTT3=
EXTT4=
EXTT5=
EXTT6=
EXTT7=
EXTT8=
EXTT9=
EXTT10=
EXTT11=
EXTT12=
EXTT13=
EXTT14=
EXTT15=
EXTT16=
EXTT17=
EXTT18=
EXTT19=
PLAYORDER=
